<?xml version="1.0" ?><svg data-name="Layer 1" id="Layer_1" viewBox="0 0 32 32" xmlns="http://www.w3.org/2000/svg"><defs><style>.cls-1{fill:#ffffff;}</style></defs><title/><path class="cls-1" fill="#ffffff" d="M22,3H10a7,7,0,0,0-7,7V22a7,7,0,0,0,7,7H22a7,7,0,0,0,7-7V10A7,7,0,0,0,22,3Zm5,19a5,5,0,0,1-5,5H10a5,5,0,0,1-5-5V10a5,5,0,0,1,5-5H22a5,5,0,0,1,5,5Z"/><path class="cls-1" d="M16,9a7,7,0,1,0,7,7A7,7,0,0,0,16,9Zm0,12a5,5,0,1,1,5-5A5,5,0,0,1,16,21Z"/><circle class="cls-1" cx="23" cy="9" r="1.5"/></svg>